<svg width="695" height="868" viewBox="0 0 695 868" fill="none" xmlns="http://www.w3.org/2000/svg">
<path d="M143.456 387.043L74.9543 387.71C71.7345 371.859 60.9161 330.268 70.659 318.923C71.103 314.653 73.1768 310.719 76.4484 307.94C79.72 305.161 83.9376 303.751 88.2229 304.003C98.8404 287.383 116.525 289.878 128.478 300.258C140.507 304.409 145.042 311.783 143.457 321.79C152.365 329.588 154.009 339.075 150.01 349.875L143.456 387.043Z" fill="#2F2E41"/>
<path d="M136.862 429.242L87.4396 422.399L77.5552 407.953C91.1713 398.921 95.9895 386.306 89.7207 369.175L123.936 368.415C122.333 383.67 127.378 395.481 141.424 402.63L136.862 429.242Z" fill="#FFB9B9"/>
<path d="M136.102 878.606L118.194 876.809L100.366 686.239L93.628 876.195L76.034 875.565L46.381 612.485H159.672L136.102 878.606Z" fill="#041845"/>
<path d="M108.729 381.34C127.626 381.34 142.945 366.022 142.945 347.125C142.945 328.228 127.626 312.909 108.729 312.909C89.8326 312.909 74.5138 328.228 74.5138 347.125C74.5138 366.022 89.8326 381.34 108.729 381.34Z" fill="#FFB9B9"/>
<path d="M176.4 618.568L38.0172 620.089C58.554 541.908 70.8387 469.284 49.4224 419.358L83.6379 402.63C100.136 419.838 118.509 418.064 138.383 401.109L171.078 409.473C165.478 474.944 167.988 545.064 176.4 618.568Z" fill="#041845"/>
<path d="M0 537.972L85.919 572.187L105.128 577.837C105.988 578.09 106.889 578.166 107.779 578.062C108.668 577.957 109.527 577.674 110.304 577.229C111.082 576.784 111.761 576.187 112.302 575.473C112.842 574.758 113.233 573.942 113.45 573.074C113.831 571.55 113.66 569.941 112.967 568.531C112.275 567.122 111.106 566.003 109.667 565.374L89.7207 559.261L29.6534 524.285L42.1992 491.21L15.9672 477.144L0 537.972Z" fill="#FFB9B9"/>
<path d="M0.760254 475.623C17.1072 482.001 30.109 492.885 40.2982 507.558L72.2327 461.177L49.4224 419.358L0.760254 475.623Z" fill="#041845"/>
<path d="M147.292 341.58C133.405 338.002 119.752 337.51 106.479 342.049C98.0246 346.144 87.8714 345.766 76.58 342.392V308.256L137.539 309.881L147.292 341.58Z" fill="#2F2E41"/>
<path d="M85.6338 498.106C82.9471 498.109 80.3712 499.178 78.4714 501.077C76.5716 502.977 75.503 505.553 75.5 508.24L79.5 591.972C79.503 594.659 80.5716 597.235 82.4714 599.135C84.3712 601.034 86.9471 602.103 89.6338 602.106H135.366C138.053 602.103 140.629 601.034 142.529 599.135C144.428 597.235 145.497 594.659 145.5 591.972L149.5 508.24C149.497 505.553 148.428 502.977 146.529 501.077C144.629 499.178 142.053 498.109 139.366 498.106H85.6338Z" fill="#3F3D56"/>
<path d="M215.39 531.646L140.5 561.466L134.85 563.716C134.67 563.786 134.49 563.846 134.3 563.906L115.37 569.476C112.95 570.186 109.6 566.926 107.64 564.676C106.67 563.592 106.12 562.196 106.09 560.741C106.061 559.286 106.554 557.869 107.48 556.746C107.742 556.444 108.029 556.167 108.34 555.916C109.07 555.348 109.929 554.97 110.84 554.816L129.75 551.096C130.428 550.963 131.08 550.72 131.68 550.376L140.5 545.236L186.29 518.576C187.564 517.836 188.533 516.668 189.026 515.279C189.518 513.891 189.502 512.373 188.98 510.996L180.24 487.946C179.704 486.536 179.7 484.978 180.228 483.565C180.756 482.152 181.781 480.979 183.11 480.266L197.59 472.506C198.417 472.062 199.335 471.811 200.273 471.773C201.211 471.735 202.146 471.91 203.007 472.286C203.868 472.661 204.632 473.227 205.242 473.941C205.852 474.654 206.293 475.497 206.53 476.406L219.1 524.286C219.487 525.754 219.323 527.313 218.639 528.669C217.956 530.025 216.8 531.083 215.39 531.646Z" fill="#FFB9B9"/>
<path d="M219.74 467.26C203.393 473.637 190.391 484.521 180.202 499.194L148.267 452.813L171.078 409.473L219.74 467.26Z" fill="#041845"/>
<path d="M131.5 377.579C116.532 383.805 100.837 383.552 84.5 377.579C89.2537 369.465 82.148 363.11 78.5 354.919L139.5 353.106C134.835 360.222 127.952 368.629 131.5 377.579Z" fill="white"/>
<path d="M138.854 354.46L138.146 353.753L139.146 352.753L145.12 345.781L145.88 346.431L139.88 353.431L138.854 354.46Z" fill="white"/>
<path d="M74.3202 350.222L73.6797 350.99L79.6797 355.99L80.3202 355.222L74.3202 350.222Z" fill="white"/>
<path d="M140.577 360.339L130.075 376.837L130.919 377.375L141.421 360.876L140.577 360.339Z" fill="white"/>
<path d="M75.422 360.338L74.5781 360.875L85.0781 377.375L85.922 376.838L75.422 360.338Z" fill="white"/>
<path d="M142.5 543.821V561.938L136.193 564.45C135.992 564.528 135.791 564.595 135.579 564.662L114.449 570.879C111.748 571.671 108.008 568.033 105.82 565.521C104.737 564.311 104.124 562.752 104.091 561.128C104.058 559.504 104.608 557.922 105.642 556.669C105.934 556.333 106.255 556.023 106.602 555.743C107.416 555.109 108.375 554.687 109.392 554.515L130.5 550.363C131.258 550.214 131.985 549.942 132.655 549.559L142.5 543.821Z" fill="white"/>
<path d="M151.64 479.202H148.026C148.026 428.091 137.503 392.473 127.247 392.473L126.344 388.859C135.541 388.859 141.404 403.683 144.703 416.12C149.177 432.979 151.64 455.382 151.64 479.202Z" fill="#3F3D56"/>
<path d="M68.5247 466.554H64.911C64.911 419.745 75.5073 390.666 91.1104 390.666L90.2069 394.28C79.4143 394.28 68.5247 416.628 68.5247 466.554Z" fill="#3F3D56"/>
<path d="M149.833 489.14C154.822 489.14 158.867 485.095 158.867 480.105C158.867 475.116 154.822 471.071 149.833 471.071C144.843 471.071 140.799 475.116 140.799 480.105C140.799 485.095 144.843 489.14 149.833 489.14Z" fill="#3F3D56"/>
<path d="M54.0698 488.236H50.4562C50.4562 475.284 57.751 464.747 66.7178 464.747V468.361C59.7436 468.361 54.0698 477.277 54.0698 488.236Z" fill="#3F3D56"/>
<path d="M82.9794 488.236H79.3657C79.3657 477.277 73.692 468.361 66.7178 468.361V464.747C75.6846 464.747 82.9794 475.284 82.9794 488.236Z" fill="#3F3D56"/>
<path d="M81.1725 492.753C83.1683 492.753 84.7863 491.135 84.7863 489.14C84.7863 487.144 83.1683 485.526 81.1725 485.526C79.1768 485.526 77.5588 487.144 77.5588 489.14C77.5588 491.135 79.1768 492.753 81.1725 492.753Z" fill="#3F3D56"/>
<path d="M52.263 492.753C54.2588 492.753 55.8767 491.135 55.8767 489.14C55.8767 487.144 54.2588 485.526 52.263 485.526C50.2672 485.526 48.6493 487.144 48.6493 489.14C48.6493 491.135 50.2672 492.753 52.263 492.753Z" fill="#3F3D56"/>
<path d="M517.957 0H299.67C297.636 0.00225048 295.687 0.810554 294.249 2.24757C292.811 3.68458 292.002 5.63294 292 7.66518V302.48C292.002 304.512 292.811 306.461 294.249 307.898C295.687 309.335 297.636 310.143 299.67 310.145H517.957C519.99 310.143 521.94 309.334 523.377 307.897C524.815 306.461 525.624 304.512 525.626 302.48V7.66518C525.624 5.63296 524.815 3.68462 523.377 2.24762C521.94 0.810618 519.99 0.00230032 517.957 0Z" fill="#F2F2F2"/>
<path d="M306.413 9.43408C304.994 9.45812 303.643 10.0434 302.655 11.0616C301.668 12.0798 301.124 13.4479 301.144 14.8658V295.279C301.124 296.697 301.668 298.065 302.655 299.084C303.643 300.102 304.994 300.687 306.413 300.711H511.214C512.632 300.687 513.984 300.102 514.971 299.084C515.959 298.065 516.502 296.697 516.482 295.279V14.8658C516.502 13.4479 515.959 12.0798 514.971 11.0616C513.984 10.0434 512.632 9.45812 511.214 9.43408H306.413Z" fill="white"/>
<path d="M317.074 22.4059C315.122 22.4059 313.534 24.1969 313.534 26.3985V64.994C313.534 67.1957 315.122 68.9867 317.074 68.9867H500.553C502.505 68.9867 504.093 67.1957 504.093 64.994V26.3985C504.093 24.1969 502.505 22.4059 500.553 22.4059H317.074Z" fill="#041845"/>
<path d="M317.074 87.7074C316.122 87.7221 315.214 88.1135 314.551 88.7957C313.887 89.478 313.521 90.3954 313.534 91.3468V173.839C313.521 174.791 313.887 175.708 314.551 176.39C315.214 177.072 316.122 177.464 317.074 177.479H500.553C501.505 177.464 502.412 177.072 503.075 176.39C503.739 175.708 504.105 174.791 504.093 173.839V91.3468C504.105 90.3954 503.739 89.478 503.075 88.7957C502.412 88.1135 501.505 87.7221 500.553 87.7074H317.074Z" fill="#E6E6E6"/>
<path d="M481.379 27.86H336.247V36.1148H481.379V27.86Z" fill="white"/>
<path d="M481.674 45.2541H336.542V49.0866H481.674V45.2541Z" fill="white"/>
<path d="M481.674 52.0348H336.542V55.8674H481.674V52.0348Z" fill="white"/>
<path d="M481.674 58.8156H336.542V62.6482H481.674V58.8156Z" fill="white"/>
<path d="M422.478 177.626H489.269C489.694 177.626 490.11 177.5 490.463 177.264C490.817 177.028 491.092 176.692 491.255 176.299C491.418 175.907 491.46 175.475 491.378 175.058C491.295 174.641 491.09 174.258 490.789 173.958L448.042 131.235C447.639 130.833 447.092 130.607 446.522 130.607C445.952 130.607 445.405 130.833 445.002 131.235L434.372 141.859C433.953 142.278 433.456 142.61 432.909 142.836C432.362 143.063 431.775 143.18 431.183 143.18C430.591 143.18 430.004 143.063 429.457 142.836C428.91 142.61 428.413 142.278 427.994 141.859L394.699 108.583C394.296 108.181 393.749 107.955 393.179 107.955C392.609 107.955 392.062 108.181 391.659 108.583L326.542 173.663C326.241 173.963 326.037 174.346 325.954 174.763C325.871 175.18 325.913 175.612 326.076 176.005C326.239 176.397 326.515 176.733 326.868 176.969C327.222 177.205 327.637 177.331 328.062 177.331H422.564L422.478 177.626Z" fill="white"/>
<path d="M343.032 115.42C347.594 115.42 351.292 111.724 351.292 107.165C351.292 102.606 347.594 98.9104 343.032 98.9104C338.47 98.9104 334.772 102.606 334.772 107.165C334.772 111.724 338.47 115.42 343.032 115.42Z" fill="white"/>
<path d="M317.074 196.789C316.122 196.804 315.214 197.195 314.551 197.877C313.887 198.559 313.521 199.477 313.534 200.428V282.921C313.521 283.872 313.887 284.789 314.551 285.472C315.214 286.154 316.122 286.545 317.074 286.56H500.553C501.505 286.545 502.412 286.154 503.075 285.472C503.739 284.789 504.105 283.872 504.093 282.921V200.428C504.105 199.477 503.739 198.559 503.075 197.877C502.412 197.195 501.505 196.804 500.553 196.789H317.074Z" fill="#E6E6E6"/>
<path d="M422.478 286.707H489.269C489.694 286.707 490.11 286.581 490.463 286.345C490.817 286.109 491.092 285.773 491.255 285.381C491.418 284.988 491.46 284.556 491.378 284.139C491.295 283.722 491.09 283.339 490.789 283.039L448.042 240.317C447.639 239.915 447.092 239.689 446.522 239.689C445.952 239.689 445.406 239.915 445.002 240.317L434.372 250.94C433.953 251.359 433.456 251.691 432.909 251.918C432.362 252.145 431.775 252.261 431.183 252.261C430.591 252.261 430.004 252.145 429.457 251.918C428.91 251.691 428.413 251.359 427.994 250.94L394.7 217.665C394.296 217.263 393.749 217.037 393.179 217.037C392.609 217.037 392.062 217.263 391.659 217.665L326.542 282.744C326.241 283.045 326.037 283.428 325.954 283.844C325.871 284.261 325.914 284.693 326.076 285.086C326.239 285.479 326.515 285.814 326.868 286.05C327.222 286.286 327.637 286.412 328.063 286.413H422.564L422.478 286.707Z" fill="white"/>
<path d="M343.032 224.501C347.594 224.501 351.292 220.806 351.292 216.247C351.292 211.688 347.594 207.992 343.032 207.992C338.47 207.992 334.772 211.688 334.772 216.247C334.772 220.806 338.47 224.501 343.032 224.501Z" fill="white"/>
<path d="M376.365 67.8074C374.957 67.8091 373.608 68.3687 372.612 69.3635C371.617 70.3584 371.057 71.7072 371.055 73.1141V367.929C371.057 369.336 371.617 370.685 372.612 371.679C373.608 372.674 374.957 373.234 376.365 373.236H594.652C596.06 373.234 597.41 372.674 598.405 371.68C599.4 370.685 599.96 369.336 599.962 367.929V73.1141C599.96 71.7072 599.4 70.3583 598.405 69.3635C597.41 68.3686 596.06 67.809 594.652 67.8074H376.365Z" fill="#E6E6E6"/>
<path d="M382.813 76.0622C381.395 76.0863 380.043 76.6716 379.056 77.6898C378.068 78.708 377.525 80.076 377.545 81.494V361.908C377.525 363.325 378.068 364.693 379.056 365.712C380.043 366.73 381.395 367.315 382.813 367.339H587.614C589.033 367.315 590.384 366.73 591.372 365.712C592.359 364.693 592.902 363.325 592.882 361.908V81.494C592.902 80.076 592.359 78.708 591.372 77.6898C590.384 76.6716 589.033 76.0863 587.614 76.0622H382.813Z" fill="white"/>
<path d="M414.86 116.854C414.235 116.855 413.635 117.104 413.192 117.546C412.75 117.988 412.501 118.588 412.5 119.213V130.038C412.501 130.663 412.75 131.263 413.192 131.705C413.635 132.147 414.235 132.396 414.86 132.396H554.092C554.718 132.396 555.318 132.147 555.76 131.705C556.202 131.263 556.451 130.663 556.452 130.038V119.213C556.451 118.588 556.202 117.988 555.76 117.546C555.318 117.104 554.718 116.855 554.092 116.854H414.86Z" fill="#041845"/>
<path d="M413.975 152.678C413.819 152.678 413.669 152.741 413.558 152.851C413.448 152.962 413.386 153.111 413.385 153.268V157.494C413.386 157.65 413.448 157.8 413.558 157.91C413.669 158.021 413.819 158.083 413.975 158.083H555.567C555.723 158.083 555.873 158.021 555.984 157.91C556.095 157.8 556.157 157.65 556.157 157.494V153.268C556.157 153.111 556.095 152.962 555.984 152.851C555.873 152.74 555.723 152.678 555.567 152.678H413.975Z" fill="#CCCCCC"/>
<path d="M413.975 166.413C413.819 166.414 413.669 166.476 413.558 166.586C413.448 166.697 413.386 166.847 413.385 167.003V171.229C413.386 171.385 413.448 171.535 413.558 171.646C413.669 171.756 413.819 171.818 413.975 171.819H555.567C555.723 171.818 555.873 171.756 555.984 171.646C556.095 171.535 556.157 171.385 556.157 171.229V167.003C556.157 166.847 556.095 166.697 555.984 166.586C555.873 166.476 555.723 166.414 555.567 166.413H413.975Z" fill="#CCCCCC"/>
<path d="M413.975 180.149C413.819 180.149 413.669 180.211 413.558 180.322C413.448 180.432 413.386 180.582 413.385 180.738V184.964C413.386 185.12 413.448 185.27 413.558 185.381C413.669 185.491 413.819 185.553 413.975 185.554H555.567C555.723 185.554 555.873 185.491 555.984 185.381C556.095 185.27 556.157 185.12 556.157 184.964V180.738C556.157 180.582 556.095 180.432 555.984 180.322C555.873 180.211 555.723 180.149 555.567 180.149H413.975Z" fill="#CCCCCC"/>
<path d="M413.68 207.586C413.524 207.586 413.374 207.648 413.263 207.759C413.153 207.869 413.091 208.019 413.09 208.175V212.401C413.091 212.557 413.153 212.707 413.263 212.818C413.374 212.928 413.524 212.99 413.68 212.99H555.272C555.429 212.99 555.578 212.928 555.689 212.818C555.8 212.707 555.862 212.557 555.862 212.401V208.175C555.862 208.019 555.8 207.869 555.689 207.758C555.578 207.648 555.429 207.586 555.272 207.586H413.68Z" fill="#CCCCCC"/>
<path d="M413.68 221.321C413.524 221.321 413.374 221.383 413.263 221.494C413.153 221.604 413.091 221.754 413.09 221.911V226.136C413.091 226.293 413.153 226.442 413.263 226.553C413.374 226.663 413.524 226.726 413.68 226.726H555.272C555.429 226.726 555.578 226.664 555.689 226.553C555.8 226.442 555.862 226.293 555.862 226.136V221.911C555.862 221.754 555.8 221.604 555.689 221.494C555.578 221.383 555.429 221.321 555.272 221.321H413.68Z" fill="#CCCCCC"/>
<path d="M413.68 235.056C413.524 235.056 413.374 235.118 413.263 235.229C413.153 235.339 413.091 235.489 413.09 235.646V239.872C413.091 240.028 413.153 240.178 413.263 240.288C413.374 240.399 413.524 240.461 413.68 240.461H555.272C555.429 240.461 555.579 240.399 555.689 240.288C555.8 240.178 555.862 240.028 555.862 239.872V235.646C555.862 235.489 555.8 235.339 555.689 235.229C555.579 235.118 555.429 235.056 555.272 235.056H413.68Z" fill="#CCCCCC"/>
<path d="M413.68 248.859C413.524 248.86 413.374 248.922 413.263 249.032C413.153 249.143 413.091 249.293 413.09 249.449V253.675C413.091 253.831 413.153 253.981 413.263 254.092C413.374 254.202 413.524 254.264 413.68 254.265H555.272C555.429 254.264 555.579 254.202 555.689 254.092C555.8 253.981 555.862 253.831 555.862 253.675V249.449C555.862 249.293 555.8 249.143 555.689 249.032C555.579 248.922 555.429 248.86 555.272 248.859H413.68Z" fill="#CCCCCC"/>
<path d="M413.68 262.595C413.524 262.595 413.374 262.657 413.263 262.768C413.153 262.878 413.091 263.028 413.09 263.184V267.41C413.091 267.567 413.153 267.717 413.263 267.827C413.374 267.938 413.524 268 413.68 268H555.272C555.429 268 555.579 267.938 555.689 267.827C555.8 267.717 555.862 267.567 555.862 267.41V263.184C555.862 263.028 555.8 262.878 555.689 262.768C555.579 262.657 555.429 262.595 555.272 262.595H413.68Z" fill="#CCCCCC"/>
<path d="M413.68 276.33C413.524 276.33 413.374 276.393 413.263 276.503C413.153 276.614 413.091 276.763 413.09 276.92V281.146C413.091 281.302 413.153 281.452 413.263 281.562C413.374 281.673 413.524 281.735 413.68 281.735H555.272C555.429 281.735 555.579 281.673 555.689 281.562C555.8 281.452 555.862 281.302 555.862 281.146V276.92C555.862 276.763 555.8 276.614 555.689 276.503C555.579 276.392 555.429 276.33 555.272 276.33H413.68Z" fill="#CCCCCC"/>
<path d="M413.68 290.133C413.524 290.134 413.374 290.196 413.263 290.306C413.153 290.417 413.091 290.567 413.09 290.723V294.949C413.091 295.105 413.153 295.255 413.263 295.366C413.374 295.476 413.524 295.538 413.68 295.539H555.272C555.429 295.539 555.579 295.476 555.689 295.366C555.8 295.255 555.862 295.105 555.862 294.949V290.723C555.862 290.567 555.8 290.417 555.689 290.306C555.579 290.196 555.429 290.134 555.272 290.133H413.68Z" fill="#CCCCCC"/>
<path d="M413.68 303.869C413.524 303.869 413.374 303.931 413.263 304.042C413.153 304.152 413.091 304.302 413.09 304.458V308.684C413.091 308.841 413.153 308.991 413.263 309.101C413.374 309.212 413.524 309.274 413.68 309.274H555.272C555.429 309.274 555.579 309.212 555.689 309.101C555.8 308.991 555.862 308.841 555.862 308.684V304.458C555.862 304.302 555.8 304.152 555.689 304.042C555.579 303.931 555.429 303.869 555.272 303.869H413.68Z" fill="#CCCCCC"/>
<path d="M413.68 317.604C413.524 317.604 413.374 317.667 413.263 317.777C413.153 317.888 413.091 318.038 413.09 318.194V322.42C413.091 322.576 413.153 322.726 413.263 322.837C413.374 322.947 413.524 323.009 413.68 323.009H555.272C555.429 323.009 555.579 322.947 555.689 322.837C555.8 322.726 555.862 322.576 555.862 322.42V318.194C555.862 318.038 555.8 317.888 555.689 317.777C555.579 317.666 555.429 317.604 555.272 317.604H413.68Z" fill="#CCCCCC"/>
<path d="M601.925 318H601.728C593.903 318 586.982 322.148 583.001 328.27C579.02 322.148 572.1 318 564.275 318H564.078C558.205 318.056 552.592 320.432 548.458 324.611C544.324 328.79 542.003 334.435 542 340.319C542 347.625 545.194 357.993 551.422 366.523C563.289 382.778 583.001 397 583.001 397C583.001 397 602.714 382.781 614.578 366.523C620.809 357.993 624 347.625 624 340.319C623.997 334.435 621.676 328.791 617.543 324.612C613.409 320.433 607.797 318.057 601.925 318ZM599.111 367.774C598.22 367.771 597.35 367.497 596.617 366.99C595.883 366.483 595.32 365.765 595.001 364.931H590.323C590.015 364.929 589.715 364.831 589.466 364.65C589.216 364.469 589.029 364.215 588.931 363.922L587.493 359.585L582.946 375.504C582.858 375.81 582.672 376.079 582.418 376.271C582.163 376.463 581.854 376.567 581.535 376.568H581.444C581.111 376.551 580.795 376.422 580.546 376.2C580.298 375.978 580.134 375.677 580.08 375.348L575.394 347.11L571.969 363.82C571.89 364.137 571.708 364.419 571.451 364.621C571.194 364.822 570.877 364.931 570.55 364.931H563.96C563.762 364.94 563.565 364.908 563.38 364.838C563.195 364.768 563.026 364.661 562.884 364.524C562.741 364.387 562.627 364.222 562.55 364.04C562.472 363.858 562.432 363.662 562.432 363.464C562.432 363.266 562.472 363.07 562.55 362.888C562.627 362.705 562.741 362.541 562.884 362.404C563.026 362.267 563.195 362.16 563.38 362.09C563.565 362.02 563.762 361.988 563.96 361.997H569.396L574.248 339.531C574.327 339.198 574.52 338.904 574.792 338.699C575.064 338.493 575.399 338.388 575.74 338.402C576.08 338.417 576.405 338.549 576.659 338.777C576.914 339.005 577.081 339.314 577.132 339.652L581.918 368.457L585.993 354.215C586.078 353.915 586.258 353.65 586.505 353.461C586.752 353.271 587.054 353.167 587.365 353.164H587.394C587.702 353.164 588.002 353.261 588.252 353.443C588.501 353.624 588.688 353.879 588.784 354.173L591.383 362.004H594.944C595.197 361.234 595.658 360.548 596.275 360.023C596.893 359.498 597.643 359.155 598.443 359.03C599.244 358.905 600.063 359.005 600.81 359.317C601.558 359.629 602.204 360.142 602.679 360.8C603.154 361.457 603.438 362.233 603.501 363.042C603.563 363.851 603.401 364.661 603.033 365.384C602.664 366.107 602.104 366.713 601.413 367.137C600.723 367.56 599.928 367.785 599.119 367.785L599.111 367.774Z" fill="#DF493D"/>
<path d="M256 30H187V107H256V30Z" fill="#041845"/>
<path d="M268 23H199V100H268V23Z" stroke="#3F3D56" stroke-miterlimit="10"/>
<path d="M96 117H27V194H96V117Z" fill="#F2F2F2"/>
<path d="M108 110H39V187H108V110Z" stroke="#3F3D56" stroke-miterlimit="10"/>
<path d="M681 637.309H679.402C679.402 570.266 617.764 515.723 542 515.723C466.236 515.723 404.598 570.266 404.598 637.309H403C403 569.487 465.355 514.309 542 514.309C618.645 514.309 681 569.487 681 637.309Z" fill="#3F3D56"/>
<path d="M302.891 700.384L370.752 619.567H504.171L585.705 698.983L584.058 700.042H584.646V865.227H302.984V700.042L302.891 700.384Z" fill="#3F3D56"/>
<path d="M343.719 665.249H359.102V612H343.719V665.249Z" fill="#3F3D56"/>
<path d="M369.694 618.508L453.345 716.581V865.227H302.984V697.924L369.694 618.508Z" fill="#041845"/>
<path d="M434.014 736.044H403.306V767.442H434.014V736.044Z" fill="#3F3D56"/>
<path d="M434.014 778.767H403.306V810.165H434.014V778.767Z" fill="#3F3D56"/>
<path d="M434.014 736.044H403.306V767.442H434.014V736.044Z" fill="white"/>
<path d="M434.014 778.767H403.306V810.165H434.014V778.767Z" fill="white"/>
<path d="M391.545 736.044H360.838V767.442H391.545V736.044Z" fill="#3F3D56"/>
<path d="M391.545 778.767H360.838V810.165H391.545V778.767Z" fill="#3F3D56"/>
<path d="M391.545 736.044H360.838V767.442H391.545V736.044Z" fill="white"/>
<path d="M391.545 778.767H360.838V810.165H391.545V778.767Z" fill="white"/>
<path d="M349.077 736.044H318.369V767.442H349.077V736.044Z" fill="#3F3D56"/>
<path d="M349.077 778.767H318.369V810.165H349.077V778.767Z" fill="#3F3D56"/>
<path d="M349.077 736.044H318.369V767.442H349.077V736.044Z" fill="white"/>
<path d="M349.077 778.767H318.369V810.165H349.077V778.767Z" fill="white"/>
<path d="M648 429H634V464H648V429Z" fill="#041845"/>
<path d="M647 461H528V866H647V461Z" fill="#041845"/>
<path d="M567.5 496H549.5V514H567.5V496Z" fill="white"/>
<path d="M596.5 496H578.5V514H596.5V496Z" fill="white"/>
<path d="M625.5 496H607.5V514H625.5V496Z" fill="white"/>
<path d="M568 537H550V555H568V537Z" fill="white"/>
<path d="M597 537H579V555H597V537Z" fill="white"/>
<path d="M626 537H608V555H626V537Z" fill="white"/>
<path d="M568.5 578H550.5V596H568.5V578Z" fill="white"/>
<path d="M597.5 578H579.5V596H597.5V578Z" fill="white"/>
<path d="M626.5 578H608.5V596H626.5V578Z" fill="white"/>
<path d="M569 619H551V637H569V619Z" fill="white"/>
<path d="M598 619H580V637H598V619Z" fill="white"/>
<path d="M627 619H609V637H627V619Z" fill="white"/>
<path d="M569.5 660H551.5V678H569.5V660Z" fill="white"/>
<path d="M598.5 660H580.5V678H598.5V660Z" fill="white"/>
<path d="M627.5 660H609.5V678H627.5V660Z" fill="white"/>
<path d="M570 701H552V719H570V701Z" fill="white"/>
<path d="M599 701H581V719H599V701Z" fill="white"/>
<path d="M628 701H610V719H628V701Z" fill="white"/>
<path d="M570.5 742H552.5V760H570.5V742Z" fill="white"/>
<path d="M599.5 742H581.5V760H599.5V742Z" fill="white"/>
<path d="M628.5 742H610.5V760H628.5V742Z" fill="white"/>
<path d="M571 783H553V801H571V783Z" fill="white"/>
<path d="M600 783H582V801H600V783Z" fill="white"/>
<path d="M600 831H582V865H600V831Z" fill="white"/>
<path d="M629 783H611V801H629V783Z" fill="white"/>
<path d="M655 429H647V463H655V429Z" fill="#3F3D56"/>
<path d="M695 461H647V866H695V461Z" fill="#3F3D56"/>
<path d="M318 853C315.553 853 313.149 853.645 311.03 854.87C308.879 852.924 306.209 851.645 303.345 851.188C300.481 850.73 297.545 851.114 294.895 852.292C292.244 853.471 289.993 855.394 288.414 857.827C286.835 860.26 285.996 863.099 286 866H331.95C331.699 862.471 330.121 859.168 327.532 856.756C324.944 854.343 321.538 853.002 318 853Z" fill="#3F3D56"/>
<path d="M555 853C552.553 853 550.149 853.645 548.03 854.87C545.879 852.924 543.209 851.645 540.345 851.188C537.48 850.73 534.545 851.114 531.895 852.292C529.244 853.471 526.993 855.394 525.414 857.827C523.835 860.26 522.996 863.099 523 866H568.95C568.699 862.471 567.121 859.168 564.532 856.756C561.944 854.343 558.538 853.002 555 853Z" fill="#3F3D56"/>
</svg>
