<svg width="220" height="576" viewBox="0 0 220 576" fill="none" xmlns="http://www.w3.org/2000/svg">
<path d="M143.456 95.0431L74.9543 95.7105C71.7345 79.8591 60.9161 38.2677 70.659 26.9232C71.103 22.6534 73.1768 18.7195 76.4484 15.9402C79.72 13.1609 83.9376 11.7505 88.2229 12.0026C98.8404 -4.6172 116.525 -2.12184 128.478 8.25797C140.507 12.4087 145.042 19.7828 143.457 29.7897C152.365 37.5877 154.009 47.0751 150.01 57.8746L143.456 95.0431Z" fill="#2F2E41"/>
<path d="M136.862 137.242L87.4396 130.399L77.5552 115.953C91.1713 106.921 95.9895 94.3057 89.7207 77.175L123.936 76.4147C122.333 91.6698 127.378 103.481 141.424 110.63L136.862 137.242Z" fill="#FFB9B9"/>
<path d="M136.102 586.606L118.194 584.809L100.366 394.239L93.628 584.195L76.034 583.565L46.381 320.485H159.672L136.102 586.606Z" fill="#041845"/>
<path d="M108.729 89.3405C127.626 89.3405 142.945 74.0217 142.945 55.1249C142.945 36.2282 127.626 20.9094 108.729 20.9094C89.8326 20.9094 74.5138 36.2282 74.5138 55.1249C74.5138 74.0217 89.8326 89.3405 108.729 89.3405Z" fill="#FFB9B9"/>
<path d="M176.4 326.568L38.0172 328.089C58.554 249.908 70.8387 177.284 49.4224 127.358L83.6379 110.63C100.136 127.838 118.509 126.064 138.383 109.109L171.078 117.473C165.478 182.944 167.988 253.064 176.4 326.568Z" fill="#041845"/>
<path d="M0 245.972L85.919 280.187L105.128 285.837C105.988 286.09 106.889 286.166 107.779 286.062C108.668 285.957 109.527 285.674 110.304 285.229C111.082 284.784 111.761 284.187 112.302 283.473C112.842 282.758 113.233 281.942 113.45 281.074C113.831 279.55 113.66 277.941 112.967 276.531C112.275 275.122 111.106 274.003 109.667 273.374L89.7207 267.261L29.6534 232.285L42.1992 199.21L15.9672 185.144L0 245.972Z" fill="#FFB9B9"/>
<path d="M0.760254 183.623C17.1072 190.001 30.109 200.885 40.2982 215.558L72.2327 169.177L49.4224 127.358L0.760254 183.623Z" fill="#041845"/>
<path d="M147.292 49.5797C133.405 46.0016 119.752 45.5103 106.479 50.0488C98.0246 54.1436 87.8714 53.7663 76.58 50.3925V16.2556L137.539 17.8812L147.292 49.5797Z" fill="#2F2E41"/>
<path d="M85.6338 206.106C82.9471 206.109 80.3712 207.178 78.4714 209.077C76.5716 210.977 75.503 213.553 75.5 216.24L79.5 299.972C79.503 302.659 80.5716 305.235 82.4714 307.135C84.3712 309.034 86.9471 310.103 89.6338 310.106H135.366C138.053 310.103 140.629 309.034 142.529 307.135C144.428 305.235 145.497 302.659 145.5 299.972L149.5 216.24C149.497 213.553 148.428 210.977 146.529 209.077C144.629 207.178 142.053 206.109 139.366 206.106H85.6338Z" fill="#3F3D56"/>
<path d="M215.39 239.646L140.5 269.466L134.85 271.716C134.67 271.786 134.49 271.846 134.3 271.906L115.37 277.476C112.95 278.186 109.6 274.926 107.64 272.676C106.67 271.592 106.12 270.196 106.09 268.741C106.061 267.286 106.554 265.869 107.48 264.746C107.742 264.444 108.029 264.167 108.34 263.916C109.07 263.348 109.929 262.97 110.84 262.816L129.75 259.096C130.428 258.963 131.08 258.72 131.68 258.376L140.5 253.236L186.29 226.576C187.564 225.836 188.533 224.668 189.026 223.279C189.518 221.891 189.502 220.373 188.98 218.996L180.24 195.946C179.704 194.536 179.7 192.978 180.228 191.565C180.756 190.152 181.781 188.979 183.11 188.266L197.59 180.506C198.417 180.062 199.335 179.811 200.273 179.773C201.211 179.735 202.146 179.91 203.007 180.286C203.868 180.661 204.632 181.227 205.242 181.941C205.852 182.654 206.293 183.497 206.53 184.406L219.1 232.286C219.487 233.754 219.323 235.313 218.639 236.669C217.956 238.025 216.8 239.083 215.39 239.646Z" fill="#FFB9B9"/>
<path d="M219.74 175.26C203.393 181.637 190.391 192.521 180.202 207.194L148.267 160.813L171.078 117.473L219.74 175.26Z" fill="#041845"/>
<path d="M131.5 85.5786C116.532 91.8048 100.837 91.5519 84.5 85.5786C89.2537 77.4646 82.148 71.1097 78.5 62.9189L139.5 61.1061C134.835 68.2217 127.952 76.6287 131.5 85.5786Z" fill="white"/>
<path d="M138.854 62.46L138.146 61.753L139.146 60.753L145.12 53.781L145.88 54.431L139.88 61.431L138.854 62.46Z" fill="white"/>
<path d="M74.3202 58.2219L73.6797 58.9905L79.6797 63.9905L80.3202 63.2219L74.3202 58.2219Z" fill="white"/>
<path d="M140.577 68.339L130.075 84.8374L130.919 85.3745L141.421 68.8761L140.577 68.339Z" fill="white"/>
<path d="M75.422 68.3377L74.5781 68.8748L85.0781 85.3748L85.922 84.8378L75.422 68.3377Z" fill="white"/>
<path d="M142.5 251.821V269.938L136.193 272.45C135.992 272.528 135.791 272.595 135.579 272.662L114.449 278.879C111.748 279.671 108.008 276.033 105.82 273.521C104.737 272.311 104.124 270.752 104.091 269.128C104.058 267.504 104.608 265.922 105.642 264.669C105.934 264.333 106.255 264.023 106.602 263.743C107.416 263.109 108.375 262.687 109.392 262.515L130.5 258.363C131.258 258.214 131.985 257.942 132.655 257.559L142.5 251.821Z" fill="white"/>
<path d="M151.64 187.202H148.026C148.026 136.091 137.503 100.473 127.247 100.473L126.344 96.8594C135.541 96.8594 141.404 111.683 144.703 124.12C149.177 140.979 151.64 163.382 151.64 187.202Z" fill="#3F3D56"/>
<path d="M68.5247 174.554H64.911C64.911 127.745 75.5073 98.6663 91.1104 98.6663L90.2069 102.28C79.4143 102.28 68.5247 124.628 68.5247 174.554Z" fill="#3F3D56"/>
<path d="M149.833 197.14C154.822 197.14 158.867 193.095 158.867 188.105C158.867 183.116 154.822 179.071 149.833 179.071C144.843 179.071 140.799 183.116 140.799 188.105C140.799 193.095 144.843 197.14 149.833 197.14Z" fill="#3F3D56"/>
<path d="M54.0698 196.236H50.4562C50.4562 183.284 57.751 172.747 66.7178 172.747V176.361C59.7436 176.361 54.0698 185.277 54.0698 196.236Z" fill="#3F3D56"/>
<path d="M82.9794 196.236H79.3657C79.3657 185.277 73.692 176.361 66.7178 176.361V172.747C75.6846 172.747 82.9794 183.284 82.9794 196.236Z" fill="#3F3D56"/>
<path d="M81.1725 200.753C83.1683 200.753 84.7863 199.135 84.7863 197.14C84.7863 195.144 83.1683 193.526 81.1725 193.526C79.1768 193.526 77.5588 195.144 77.5588 197.14C77.5588 199.135 79.1768 200.753 81.1725 200.753Z" fill="#3F3D56"/>
<path d="M52.263 200.753C54.2588 200.753 55.8767 199.135 55.8767 197.14C55.8767 195.144 54.2588 193.526 52.263 193.526C50.2672 193.526 48.6493 195.144 48.6493 197.14C48.6493 199.135 50.2672 200.753 52.263 200.753Z" fill="#3F3D56"/>
</svg>
