<svg width="606" height="398" viewBox="0 0 606 398" fill="none" xmlns="http://www.w3.org/2000/svg">
<path d="M490.957 0H272.67C270.636 0.00225048 268.687 0.810554 267.249 2.24757C265.811 3.68458 265.002 5.63294 265 7.66518V302.48C265.002 304.512 265.811 306.461 267.249 307.898C268.687 309.335 270.636 310.143 272.67 310.145H490.957C492.99 310.143 494.94 309.334 496.377 307.897C497.815 306.461 498.624 304.512 498.626 302.48V7.66518C498.624 5.63296 497.815 3.68462 496.377 2.24762C494.94 0.810618 492.99 0.00230032 490.957 0Z" fill="#F2F2F2"/>
<path d="M279.413 9.43408C277.994 9.45812 276.643 10.0434 275.655 11.0616C274.668 12.0798 274.124 13.4479 274.144 14.8658V295.279C274.124 296.697 274.668 298.065 275.655 299.084C276.643 300.102 277.994 300.687 279.413 300.711H484.214C485.632 300.687 486.984 300.102 487.971 299.084C488.959 298.065 489.502 296.697 489.482 295.279V14.8658C489.502 13.4479 488.959 12.0798 487.971 11.0616C486.984 10.0434 485.632 9.45812 484.214 9.43408H279.413Z" fill="white"/>
<path d="M290.074 22.4059C288.122 22.4059 286.534 24.1969 286.534 26.3985V64.994C286.534 67.1957 288.122 68.9867 290.074 68.9867H473.553C475.505 68.9867 477.093 67.1957 477.093 64.994V26.3985C477.093 24.1969 475.505 22.4059 473.553 22.4059H290.074Z" fill="#041845"/>
<path d="M290.074 87.7074C289.122 87.7221 288.214 88.1135 287.551 88.7957C286.887 89.478 286.521 90.3954 286.534 91.3468V173.839C286.521 174.791 286.887 175.708 287.551 176.39C288.214 177.072 289.122 177.464 290.074 177.479H473.553C474.505 177.464 475.412 177.072 476.075 176.39C476.739 175.708 477.105 174.791 477.093 173.839V91.3468C477.105 90.3954 476.739 89.478 476.075 88.7957C475.412 88.1135 474.505 87.7221 473.553 87.7074H290.074Z" fill="#E6E6E6"/>
<path d="M454.379 27.86H309.247V36.1148H454.379V27.86Z" fill="white"/>
<path d="M454.674 45.2541H309.542V49.0866H454.674V45.2541Z" fill="white"/>
<path d="M454.674 52.0348H309.542V55.8674H454.674V52.0348Z" fill="white"/>
<path d="M454.674 58.8156H309.542V62.6482H454.674V58.8156Z" fill="white"/>
<path d="M395.478 177.626H462.269C462.694 177.626 463.11 177.5 463.463 177.264C463.817 177.028 464.092 176.692 464.255 176.299C464.418 175.907 464.46 175.475 464.378 175.058C464.295 174.641 464.09 174.258 463.789 173.958L421.042 131.235C420.639 130.833 420.092 130.607 419.522 130.607C418.952 130.607 418.405 130.833 418.002 131.235L407.372 141.859C406.953 142.278 406.456 142.61 405.909 142.836C405.362 143.063 404.775 143.18 404.183 143.18C403.591 143.18 403.004 143.063 402.457 142.836C401.91 142.61 401.413 142.278 400.994 141.859L367.699 108.583C367.296 108.181 366.749 107.955 366.179 107.955C365.609 107.955 365.062 108.181 364.659 108.583L299.542 173.663C299.241 173.963 299.037 174.346 298.954 174.763C298.871 175.18 298.913 175.612 299.076 176.005C299.239 176.397 299.515 176.733 299.868 176.969C300.222 177.205 300.637 177.331 301.062 177.331H395.564L395.478 177.626Z" fill="white"/>
<path d="M316.032 115.42C320.594 115.42 324.292 111.724 324.292 107.165C324.292 102.606 320.594 98.9104 316.032 98.9104C311.47 98.9104 307.772 102.606 307.772 107.165C307.772 111.724 311.47 115.42 316.032 115.42Z" fill="white"/>
<path d="M290.074 196.789C289.122 196.804 288.214 197.195 287.551 197.877C286.887 198.559 286.521 199.477 286.534 200.428V282.921C286.521 283.872 286.887 284.789 287.551 285.472C288.214 286.154 289.122 286.545 290.074 286.56H473.553C474.505 286.545 475.412 286.154 476.075 285.472C476.739 284.789 477.105 283.872 477.093 282.921V200.428C477.105 199.477 476.739 198.559 476.075 197.877C475.412 197.195 474.505 196.804 473.553 196.789H290.074Z" fill="#E6E6E6"/>
<path d="M395.478 286.707H462.269C462.694 286.707 463.11 286.581 463.463 286.345C463.817 286.109 464.092 285.773 464.255 285.381C464.418 284.988 464.46 284.556 464.378 284.139C464.295 283.722 464.09 283.339 463.789 283.039L421.042 240.317C420.639 239.915 420.092 239.689 419.522 239.689C418.952 239.689 418.406 239.915 418.002 240.317L407.372 250.94C406.953 251.359 406.456 251.691 405.909 251.918C405.362 252.145 404.775 252.261 404.183 252.261C403.591 252.261 403.004 252.145 402.457 251.918C401.91 251.691 401.413 251.359 400.994 250.94L367.7 217.665C367.296 217.263 366.749 217.037 366.179 217.037C365.609 217.037 365.062 217.263 364.659 217.665L299.542 282.744C299.241 283.045 299.037 283.428 298.954 283.844C298.871 284.261 298.914 284.693 299.076 285.086C299.239 285.479 299.515 285.814 299.868 286.05C300.222 286.286 300.637 286.412 301.063 286.413H395.564L395.478 286.707Z" fill="white"/>
<path d="M316.032 224.501C320.594 224.501 324.292 220.806 324.292 216.247C324.292 211.688 320.594 207.992 316.032 207.992C311.47 207.992 307.772 211.688 307.772 216.247C307.772 220.806 311.47 224.501 316.032 224.501Z" fill="white"/>
<path d="M349.365 67.8074C347.957 67.8091 346.608 68.3687 345.612 69.3635C344.617 70.3584 344.057 71.7072 344.055 73.1141V367.929C344.057 369.336 344.617 370.685 345.612 371.679C346.608 372.674 347.957 373.234 349.365 373.236H567.652C569.06 373.234 570.41 372.674 571.405 371.68C572.4 370.685 572.96 369.336 572.962 367.929V73.1141C572.96 71.7072 572.4 70.3583 571.405 69.3635C570.41 68.3686 569.06 67.809 567.652 67.8074H349.365Z" fill="#E6E6E6"/>
<path d="M355.813 76.0622C354.395 76.0863 353.043 76.6716 352.056 77.6898C351.068 78.708 350.525 80.076 350.545 81.494V361.908C350.525 363.325 351.068 364.693 352.056 365.712C353.043 366.73 354.395 367.315 355.813 367.339H560.614C562.033 367.315 563.384 366.73 564.372 365.712C565.359 364.693 565.902 363.325 565.882 361.908V81.494C565.902 80.076 565.359 78.708 564.372 77.6898C563.384 76.6716 562.033 76.0863 560.614 76.0622H355.813Z" fill="white"/>
<path d="M387.86 116.854C387.235 116.855 386.635 117.104 386.192 117.546C385.75 117.988 385.501 118.588 385.5 119.213V130.038C385.501 130.663 385.75 131.263 386.192 131.705C386.635 132.147 387.235 132.396 387.86 132.396H527.092C527.718 132.396 528.318 132.147 528.76 131.705C529.202 131.263 529.451 130.663 529.452 130.038V119.213C529.451 118.588 529.202 117.988 528.76 117.546C528.318 117.104 527.718 116.855 527.092 116.854H387.86Z" fill="#041845"/>
<path d="M386.975 152.678C386.819 152.678 386.669 152.741 386.558 152.851C386.448 152.962 386.386 153.111 386.385 153.268V157.494C386.386 157.65 386.448 157.8 386.558 157.91C386.669 158.021 386.819 158.083 386.975 158.083H528.567C528.723 158.083 528.873 158.021 528.984 157.91C529.095 157.8 529.157 157.65 529.157 157.494V153.268C529.157 153.111 529.095 152.962 528.984 152.851C528.873 152.74 528.723 152.678 528.567 152.678H386.975Z" fill="#CCCCCC"/>
<path d="M386.975 166.413C386.819 166.414 386.669 166.476 386.558 166.586C386.448 166.697 386.386 166.847 386.385 167.003V171.229C386.386 171.385 386.448 171.535 386.558 171.646C386.669 171.756 386.819 171.818 386.975 171.819H528.567C528.723 171.818 528.873 171.756 528.984 171.646C529.095 171.535 529.157 171.385 529.157 171.229V167.003C529.157 166.847 529.095 166.697 528.984 166.586C528.873 166.476 528.723 166.414 528.567 166.413H386.975Z" fill="#CCCCCC"/>
<path d="M386.975 180.149C386.819 180.149 386.669 180.211 386.558 180.322C386.448 180.432 386.386 180.582 386.385 180.738V184.964C386.386 185.12 386.448 185.27 386.558 185.381C386.669 185.491 386.819 185.553 386.975 185.554H528.567C528.723 185.554 528.873 185.491 528.984 185.381C529.095 185.27 529.157 185.12 529.157 184.964V180.738C529.157 180.582 529.095 180.432 528.984 180.322C528.873 180.211 528.723 180.149 528.567 180.149H386.975Z" fill="#CCCCCC"/>
<path d="M386.68 207.586C386.524 207.586 386.374 207.648 386.263 207.759C386.153 207.869 386.091 208.019 386.09 208.175V212.401C386.091 212.557 386.153 212.707 386.263 212.818C386.374 212.928 386.524 212.99 386.68 212.99H528.272C528.429 212.99 528.578 212.928 528.689 212.818C528.8 212.707 528.862 212.557 528.862 212.401V208.175C528.862 208.019 528.8 207.869 528.689 207.758C528.578 207.648 528.429 207.586 528.272 207.586H386.68Z" fill="#CCCCCC"/>
<path d="M386.68 221.321C386.524 221.321 386.374 221.383 386.263 221.494C386.153 221.604 386.091 221.754 386.09 221.911V226.136C386.091 226.293 386.153 226.442 386.263 226.553C386.374 226.663 386.524 226.726 386.68 226.726H528.272C528.429 226.726 528.578 226.664 528.689 226.553C528.8 226.442 528.862 226.293 528.862 226.136V221.911C528.862 221.754 528.8 221.604 528.689 221.494C528.578 221.383 528.429 221.321 528.272 221.321H386.68Z" fill="#CCCCCC"/>
<path d="M386.68 235.056C386.524 235.056 386.374 235.118 386.263 235.229C386.153 235.339 386.091 235.489 386.09 235.646V239.872C386.091 240.028 386.153 240.178 386.263 240.288C386.374 240.399 386.524 240.461 386.68 240.461H528.272C528.429 240.461 528.579 240.399 528.689 240.288C528.8 240.178 528.862 240.028 528.862 239.872V235.646C528.862 235.489 528.8 235.339 528.689 235.229C528.579 235.118 528.429 235.056 528.272 235.056H386.68Z" fill="#CCCCCC"/>
<path d="M386.68 248.859C386.524 248.86 386.374 248.922 386.263 249.032C386.153 249.143 386.091 249.293 386.09 249.449V253.675C386.091 253.831 386.153 253.981 386.263 254.092C386.374 254.202 386.524 254.264 386.68 254.265H528.272C528.429 254.264 528.579 254.202 528.689 254.092C528.8 253.981 528.862 253.831 528.862 253.675V249.449C528.862 249.293 528.8 249.143 528.689 249.032C528.579 248.922 528.429 248.86 528.272 248.859H386.68Z" fill="#CCCCCC"/>
<path d="M386.68 262.595C386.524 262.595 386.374 262.657 386.263 262.768C386.153 262.878 386.091 263.028 386.09 263.184V267.41C386.091 267.567 386.153 267.717 386.263 267.827C386.374 267.938 386.524 268 386.68 268H528.272C528.429 268 528.579 267.938 528.689 267.827C528.8 267.717 528.862 267.567 528.862 267.41V263.184C528.862 263.028 528.8 262.878 528.689 262.768C528.579 262.657 528.429 262.595 528.272 262.595H386.68Z" fill="#CCCCCC"/>
<path d="M386.68 276.33C386.524 276.33 386.374 276.393 386.263 276.503C386.153 276.614 386.091 276.763 386.09 276.92V281.146C386.091 281.302 386.153 281.452 386.263 281.562C386.374 281.673 386.524 281.735 386.68 281.735H528.272C528.429 281.735 528.579 281.673 528.689 281.562C528.8 281.452 528.862 281.302 528.862 281.146V276.92C528.862 276.763 528.8 276.614 528.689 276.503C528.579 276.392 528.429 276.33 528.272 276.33H386.68Z" fill="#CCCCCC"/>
<path d="M386.68 290.133C386.524 290.134 386.374 290.196 386.263 290.306C386.153 290.417 386.091 290.567 386.09 290.723V294.949C386.091 295.105 386.153 295.255 386.263 295.366C386.374 295.476 386.524 295.538 386.68 295.539H528.272C528.429 295.539 528.579 295.476 528.689 295.366C528.8 295.255 528.862 295.105 528.862 294.949V290.723C528.862 290.567 528.8 290.417 528.689 290.306C528.579 290.196 528.429 290.134 528.272 290.133H386.68Z" fill="#CCCCCC"/>
<path d="M386.68 303.869C386.524 303.869 386.374 303.931 386.263 304.042C386.153 304.152 386.091 304.302 386.09 304.458V308.684C386.091 308.841 386.153 308.991 386.263 309.101C386.374 309.212 386.524 309.274 386.68 309.274H528.272C528.429 309.274 528.579 309.212 528.689 309.101C528.8 308.991 528.862 308.841 528.862 308.684V304.458C528.862 304.302 528.8 304.152 528.689 304.042C528.579 303.931 528.429 303.869 528.272 303.869H386.68Z" fill="#CCCCCC"/>
<path d="M386.68 317.604C386.524 317.604 386.374 317.667 386.263 317.777C386.153 317.888 386.091 318.038 386.09 318.194V322.42C386.091 322.576 386.153 322.726 386.263 322.837C386.374 322.947 386.524 323.009 386.68 323.009H528.272C528.429 323.009 528.579 322.947 528.689 322.837C528.8 322.726 528.862 322.576 528.862 322.42V318.194C528.862 318.038 528.8 317.888 528.689 317.777C528.579 317.666 528.429 317.604 528.272 317.604H386.68Z" fill="#CCCCCC"/>
<path d="M574.925 318H574.728C566.903 318 559.982 322.148 556.001 328.27C552.02 322.148 545.1 318 537.275 318H537.078C531.205 318.056 525.592 320.432 521.458 324.611C517.324 328.79 515.003 334.435 515 340.319C515 347.625 518.194 357.993 524.422 366.523C536.289 382.778 556.001 397 556.001 397C556.001 397 575.714 382.781 587.578 366.523C593.809 357.993 597 347.625 597 340.319C596.997 334.435 594.676 328.791 590.543 324.612C586.409 320.433 580.797 318.057 574.925 318ZM572.111 367.774C571.22 367.771 570.35 367.497 569.617 366.99C568.883 366.483 568.32 365.765 568.001 364.931H563.323C563.015 364.929 562.715 364.831 562.466 364.65C562.216 364.469 562.029 364.215 561.931 363.922L560.493 359.585L555.946 375.504C555.858 375.81 555.672 376.079 555.418 376.271C555.163 376.463 554.854 376.567 554.535 376.568H554.444C554.111 376.551 553.795 376.422 553.546 376.2C553.298 375.978 553.134 375.677 553.08 375.348L548.394 347.11L544.969 363.82C544.89 364.137 544.708 364.419 544.451 364.621C544.194 364.822 543.877 364.931 543.55 364.931H536.96C536.762 364.94 536.565 364.908 536.38 364.838C536.195 364.768 536.026 364.661 535.884 364.524C535.741 364.387 535.627 364.222 535.55 364.04C535.472 363.858 535.432 363.662 535.432 363.464C535.432 363.266 535.472 363.07 535.55 362.888C535.627 362.705 535.741 362.541 535.884 362.404C536.026 362.267 536.195 362.16 536.38 362.09C536.565 362.02 536.762 361.988 536.96 361.997H542.396L547.248 339.531C547.327 339.198 547.52 338.904 547.792 338.699C548.064 338.493 548.399 338.388 548.74 338.402C549.08 338.417 549.405 338.549 549.659 338.777C549.914 339.005 550.081 339.314 550.132 339.652L554.918 368.457L558.993 354.215C559.078 353.915 559.258 353.65 559.505 353.461C559.752 353.271 560.054 353.167 560.365 353.164H560.394C560.702 353.164 561.002 353.261 561.252 353.443C561.501 353.624 561.688 353.879 561.784 354.173L564.383 362.004H567.944C568.197 361.234 568.658 360.548 569.275 360.023C569.893 359.498 570.643 359.155 571.443 359.03C572.244 358.905 573.063 359.005 573.81 359.317C574.558 359.629 575.204 360.142 575.679 360.8C576.154 361.457 576.438 362.233 576.501 363.042C576.563 363.851 576.401 364.661 576.033 365.384C575.664 366.107 575.104 366.713 574.413 367.137C573.723 367.56 572.928 367.785 572.119 367.785L572.111 367.774Z" fill="#DF493D"/>
<path d="M229 30H160V107H229V30Z" fill="#041845"/>
<path d="M241 23H172V100H241V23Z" stroke="#3F3D56" stroke-miterlimit="10"/>
<path d="M69 117H0V194H69V117Z" fill="#F2F2F2"/>
<path d="M81 110H12V187H81V110Z" stroke="#3F3D56" stroke-miterlimit="10"/>
</svg>
