<svg width="409" height="437" viewBox="0 0 409 437" fill="none" xmlns="http://www.w3.org/2000/svg">
<path d="M395 208.309H393.402C393.402 141.266 331.764 86.7227 256 86.7227C180.236 86.7227 118.598 141.266 118.598 208.309H117C117 140.487 179.355 85.3089 256 85.3089C332.645 85.3089 395 140.487 395 208.309Z" fill="#3F3D56"/>
<path d="M16.8909 271.384L84.7519 190.567H218.171L299.705 269.983L298.058 271.042H298.646V436.227H16.9839V271.042L16.8909 271.384Z" fill="#3F3D56"/>
<path d="M57.7191 236.249H73.1021V183H57.7191L57.7191 236.249Z" fill="#3F3D56"/>
<path d="M83.6939 189.508L167.345 287.581V436.227H16.9839V268.924L83.6939 189.508Z" fill="#041845"/>
<path d="M148.014 307.044H117.306V338.442H148.014V307.044Z" fill="#3F3D56"/>
<path d="M148.014 349.767H117.306V381.165H148.014V349.767Z" fill="#3F3D56"/>
<path d="M148.014 307.044H117.306V338.442H148.014V307.044Z" fill="white"/>
<path d="M148.014 349.767H117.306V381.165H148.014V349.767Z" fill="white"/>
<path d="M105.545 307.044H74.8376V338.442H105.545V307.044Z" fill="#3F3D56"/>
<path d="M105.545 349.767H74.8376V381.165H105.545V349.767Z" fill="#3F3D56"/>
<path d="M105.545 307.044H74.8376V338.442H105.545V307.044Z" fill="white"/>
<path d="M105.545 349.767H74.8376V381.165H105.545V349.767Z" fill="white"/>
<path d="M63.0769 307.044H32.3694V338.442H63.0769V307.044Z" fill="#3F3D56"/>
<path d="M63.0769 349.767H32.3694V381.165H63.0769V349.767Z" fill="#3F3D56"/>
<path d="M63.0769 307.044H32.3694V338.442H63.0769V307.044Z" fill="white"/>
<path d="M63.0769 349.767H32.3694V381.165H63.0769V349.767Z" fill="white"/>
<path d="M362 0H348V35H362V0Z" fill="#041845"/>
<path d="M361 32H242V437H361V32Z" fill="#041845"/>
<path d="M281.5 67H263.5V85H281.5V67Z" fill="white"/>
<path d="M310.5 67H292.5V85H310.5V67Z" fill="white"/>
<path d="M339.5 67H321.5V85H339.5V67Z" fill="white"/>
<path d="M282 108H264V126H282V108Z" fill="white"/>
<path d="M311 108H293V126H311V108Z" fill="white"/>
<path d="M340 108H322V126H340V108Z" fill="white"/>
<path d="M282.5 149H264.5V167H282.5V149Z" fill="white"/>
<path d="M311.5 149H293.5V167H311.5V149Z" fill="white"/>
<path d="M340.5 149H322.5V167H340.5V149Z" fill="white"/>
<path d="M283 190H265V208H283V190Z" fill="white"/>
<path d="M312 190H294V208H312V190Z" fill="white"/>
<path d="M341 190H323V208H341V190Z" fill="white"/>
<path d="M283.5 231H265.5V249H283.5V231Z" fill="white"/>
<path d="M312.5 231H294.5V249H312.5V231Z" fill="white"/>
<path d="M341.5 231H323.5V249H341.5V231Z" fill="white"/>
<path d="M284 272H266V290H284V272Z" fill="white"/>
<path d="M313 272H295V290H313V272Z" fill="white"/>
<path d="M342 272H324V290H342V272Z" fill="white"/>
<path d="M284.5 313H266.5V331H284.5V313Z" fill="white"/>
<path d="M313.5 313H295.5V331H313.5V313Z" fill="white"/>
<path d="M342.5 313H324.5V331H342.5V313Z" fill="white"/>
<path d="M285 354H267V372H285V354Z" fill="white"/>
<path d="M314 354H296V372H314V354Z" fill="white"/>
<path d="M314 402H296V436H314V402Z" fill="white"/>
<path d="M343 354H325V372H343V354Z" fill="white"/>
<path d="M369 0H361V34H369V0Z" fill="#3F3D56"/>
<path d="M409 32H361V437H409V32Z" fill="#3F3D56"/>
<path d="M32 424C29.5529 424 27.1489 424.645 25.0305 425.87C22.8791 423.924 20.2092 422.645 17.3448 422.188C14.4805 421.73 11.545 422.114 8.89454 423.292C6.24413 424.471 3.99284 426.394 2.41395 428.827C0.835066 431.26 -0.00352234 434.099 1.11205e-05 437H45.9496C45.6991 433.471 44.1208 430.168 41.5325 427.756C38.9442 425.343 35.5381 424.002 32 424Z" fill="#3F3D56"/>
<path d="M269 424C266.553 424 264.149 424.645 262.03 425.87C259.879 423.924 257.209 422.645 254.345 422.188C251.48 421.73 248.545 422.114 245.895 423.292C243.244 424.471 240.993 426.394 239.414 428.827C237.835 431.26 236.996 434.099 237 437H282.95C282.699 433.471 281.121 430.168 278.532 427.756C275.944 425.343 272.538 424.002 269 424Z" fill="#3F3D56"/>
</svg>
