<svg width="80" height="79" viewBox="0 0 80 79" fill="none" xmlns="http://www.w3.org/2000/svg">
<path d="M78.045 39.5C78.045 60.7624 60.7984 78 39.5225 78C18.2466 78 1 60.7624 1 39.5C1 18.2376 18.2466 1 39.5225 1C60.7984 1 78.045 18.2376 78.045 39.5Z" fill="white" stroke="#041845" stroke-width="2"/>
<path d="M15.827 36.0924L15.827 36.3424L16.077 36.3424C17.9458 36.3424 19.629 36.8267 20.8371 37.5955C22.0484 38.3663 22.7519 39.3996 22.7519 40.4992L22.7519 40.7492L23.0019 40.7492L24.261 40.7492L24.511 40.7492L24.511 40.4992C24.511 38.8317 23.531 37.3467 22.0035 36.2892C20.4749 35.2309 18.3779 34.5834 16.077 34.5834L15.827 34.5834L15.827 34.8334L15.827 36.0924Z" fill="#041845" stroke="#041845" stroke-width="0.5"/>
<path d="M15.827 46.1651L15.827 46.4151L16.077 46.4151C18.3779 46.4151 20.4749 45.7676 22.0035 44.7093C23.531 43.6518 24.511 42.1668 24.511 40.4993L24.511 40.2493L24.261 40.2493L23.0019 40.2493L22.7519 40.2493L22.7519 40.4993C22.7519 41.5989 22.0484 42.6322 20.8371 43.403C19.629 44.1718 17.9458 44.6561 16.077 44.6561L15.827 44.6561L15.827 44.9061L15.827 46.1651Z" fill="#041845" stroke="#041845" stroke-width="0.5"/>
<path d="M24.1154 40.8932H30.1962C30.6592 40.8932 31.0616 40.5754 31.169 40.125L35.14 23.4621C35.3918 22.4057 36.91 22.4515 37.0977 23.521L41.1808 46.7837C41.3627 47.8204 42.8167 47.9085 43.1226 46.9014L46.5697 35.5507C46.8474 34.6364 48.1265 34.5951 48.4626 35.4896L50.2496 40.2449C50.3961 40.6349 50.7691 40.8932 51.1857 40.8932H57.6091" stroke="#041845" stroke-width="2"/>
<path d="M61.6283 45.5513C64.588 45.5513 66.9873 43.152 66.9873 40.1924C66.9873 37.2327 64.588 34.8334 61.6283 34.8334C58.6686 34.8334 56.2693 37.2327 56.2693 40.1924C56.2693 43.152 58.6686 45.5513 61.6283 45.5513Z" fill="#041845"/>
</svg>
